<svg xmlns="http://www.w3.org/2000/svg" width="1200" height="900" viewBox="0 0 1200 900" fill="none">
  <defs>
    <linearGradient id="bg" x1="0" y1="0" x2="1200" y2="900" gradientUnits="userSpaceOnUse">
      <stop stop-color="#EAF3FF"/>
      <stop offset="1" stop-color="#F4FBFF"/>
    </linearGradient>
    <linearGradient id="card" x1="120" y1="110" x2="1020" y2="790" gradientUnits="userSpaceOnUse">
      <stop stop-color="#FFFFFF"/>
      <stop offset="1" stop-color="#F8FBFF"/>
    </linearGradient>
  </defs>
  <rect width="1200" height="900" rx="48" fill="url(#bg)"/>
  <rect x="120" y="110" width="960" height="680" rx="36" fill="url(#card)" stroke="#D7E7FF" stroke-width="3"/>
  <rect x="170" y="170" width="340" height="250" rx="24" fill="#EEF5FF"/>
  <rect x="210" y="210" width="200" height="18" rx="9" fill="#9BBBF5"/>
  <rect x="210" y="245" width="140" height="16" rx="8" fill="#C1D6FA"/>
  <path d="M210 340C240 300 280 355 320 320C360 285 390 330 430 290" stroke="#2F6DD5" stroke-width="10" stroke-linecap="round"/>
  <circle cx="430" cy="290" r="12" fill="#2F6DD5"/>
  <rect x="540" y="170" width="490" height="120" rx="24" fill="#EDF9F5"/>
  <rect x="580" y="206" width="250" height="16" rx="8" fill="#89D2B6"/>
  <rect x="580" y="238" width="180" height="14" rx="7" fill="#B8E8D6"/>
  <circle cx="940" cy="230" r="32" fill="#24B47E"/>
  <path d="M924 230L936 242L956 220" stroke="white" stroke-width="7" stroke-linecap="round" stroke-linejoin="round"/>
  <rect x="540" y="320" width="490" height="210" rx="24" fill="#FFF5E9"/>
  <rect x="580" y="360" width="170" height="16" rx="8" fill="#F3C27D"/>
  <rect x="580" y="392" width="260" height="14" rx="7" fill="#F8DDAF"/>
  <rect x="580" y="430" width="400" height="14" rx="7" fill="#F8DDAF"/>
  <circle cx="940" cy="425" r="40" fill="#F59E0B"/>
  <path d="M940 403V429L958 441" stroke="white" stroke-width="7" stroke-linecap="round"/>
  <rect x="170" y="450" width="340" height="280" rx="24" fill="#F3F2FF"/>
  <rect x="210" y="490" width="180" height="16" rx="8" fill="#B6AEF8"/>
  <rect x="210" y="522" width="120" height="14" rx="7" fill="#D3CDFC"/>
  <rect x="210" y="570" width="260" height="120" rx="16" fill="white" stroke="#DDD9FD"/>
  <path d="M245 640H300M272 612V667" stroke="#6D63E9" stroke-width="12" stroke-linecap="round"/>
  <text x="170" y="95" fill="#2F6DD5" font-family="Arial, sans-serif" font-size="44" font-weight="700">DEISA Health Monitoring</text>
</svg>
